<svg id="Capa_1" enable-background="new 0 0 480 480" height="512" viewBox="0 0 480 480" width="512" xmlns="http://www.w3.org/2000/svg"><g><path d="m175.99 416.008c-8.491.023-16.639-3.352-22.627-9.372l-144.006-144.007c-12.476-12.506-12.476-32.751 0-45.257l144.005-144.007c12.497-12.497 32.76-12.497 45.257 0s12.497 32.76 0 45.257l-89.376 89.377h338.757c17.673 0 32 14.327 32 32s-14.327 32-32 32h-338.757l89.376 89.376c12.5 12.494 12.505 32.755.011 45.255-6.003 6.006-14.148 9.38-22.64 9.378zm0-336.007c-4.244-.008-8.316 1.676-11.315 4.679l-144 144.006c-6.239 6.253-6.239 16.376 0 22.629l144 144.006c6.211 6.286 16.341 6.346 22.627.136s6.346-16.341.136-22.627c-.046-.046-.091-.092-.138-.138l-103.029-103.034c-3.124-3.124-3.124-8.189 0-11.314 1.501-1.501 3.536-2.344 5.658-2.343h358.071c8.837 0 16-7.163 16-16s-7.163-16-16-16h-358.071c-4.418.001-8.001-3.58-8.001-7.999 0-2.122.843-4.158 2.343-5.658l103.029-103.036c6.249-6.243 6.253-16.369.01-22.618-3.001-3.004-7.073-4.691-11.32-4.689z"/></g></svg>